<svg width="14" height="14" viewBox="0 0 14 14" fill="none" xmlns="http://www.w3.org/2000/svg">
<path d="M6.9987 0.333496C10.6787 0.333496 13.6654 3.32016 13.6654 7.00016C13.6654 10.6802 10.6787 13.6668 6.9987 13.6668C3.3187 13.6668 0.332031 10.6802 0.332031 7.00016C0.332031 3.32016 3.3187 0.333496 6.9987 0.333496ZM6.9987 1.66683C4.05203 1.66683 1.66536 4.0535 1.66536 7.00016C1.66536 9.94683 4.05203 12.3335 6.9987 12.3335C9.94536 12.3335 12.332 9.94683 12.332 7.00016C12.332 4.0535 9.94536 1.66683 6.9987 1.66683ZM6.9987 3.66683C8.21203 3.66683 9.27403 4.3155 9.85736 5.2855L8.7147 5.9715C8.53487 5.67166 8.27959 5.4242 7.9743 5.25379C7.66901 5.08339 7.32438 4.99599 6.97478 5.00032C6.62517 5.00464 6.28281 5.10054 5.98183 5.27844C5.68085 5.45635 5.43177 5.71005 5.25941 6.01424C5.08706 6.31844 4.99746 6.6625 4.99955 7.01212C5.00164 7.36175 5.09535 7.70471 5.27133 8.00683C5.44731 8.30894 5.69941 8.55964 6.0025 8.73393C6.30559 8.90823 6.64907 9.00002 6.9987 9.00016C7.34412 9.00039 7.68371 8.91109 7.98433 8.74097C8.28496 8.57085 8.53637 8.32573 8.71403 8.0295L9.85736 8.71483C9.48271 9.34058 8.91313 9.82614 8.23598 10.0971C7.55883 10.368 6.81151 10.4093 6.10863 10.2146C5.40575 10.02 4.78613 9.60017 4.34479 9.01953C3.90345 8.43888 3.66478 7.72949 3.66536 7.00016C3.66536 5.16016 5.1587 3.66683 6.9987 3.66683Z" fill="#31344B"/>
</svg>
