<svg width="72" height="72" viewBox="0 0 72 72" fill="none" xmlns="http://www.w3.org/2000/svg">
<g clip-path="url(#clip0_1094_2331)">
<path d="M51 45.7349V66.3509C51.0001 66.6163 50.9297 66.877 50.7961 67.1063C50.6625 67.3356 50.4705 67.5254 50.2396 67.6562C50.0087 67.7871 49.7472 67.8543 49.4818 67.8511C49.2164 67.8479 48.9567 67.7743 48.729 67.6379L36 59.9999L23.271 67.6379C23.0431 67.7745 22.7831 67.8481 22.5174 67.8511C22.2518 67.8542 21.9901 67.7867 21.7591 67.6555C21.5281 67.5243 21.3361 67.3341 21.2028 67.1044C21.0694 66.8746 20.9994 66.6136 21 66.3479V45.7379C17.1184 42.6302 14.298 38.3936 12.9284 33.6135C11.5588 28.8335 11.7077 23.7461 13.3545 19.0543C15.0013 14.3626 18.0647 10.2982 22.1213 7.42276C26.178 4.54735 31.0276 3.00293 36 3.00293C40.9724 3.00293 45.822 4.54735 49.8786 7.42276C53.9353 10.2982 56.9987 14.3626 58.6455 19.0543C60.2923 23.7461 60.4412 28.8335 59.0716 33.6135C57.702 38.3936 54.8816 42.6302 51 45.7379V45.7349ZM36 44.9999C40.7739 44.9999 45.3523 43.1035 48.7279 39.7278C52.1036 36.3522 54 31.7738 54 26.9999C54 22.226 52.1036 17.6477 48.7279 14.272C45.3523 10.8963 40.7739 8.99992 36 8.99992C31.2261 8.99992 26.6477 10.8963 23.2721 14.272C19.8964 17.6477 18 22.226 18 26.9999C18 31.7738 19.8964 36.3522 23.2721 39.7278C26.6477 43.1035 31.2261 44.9999 36 44.9999ZM36 38.9999C32.8174 38.9999 29.7652 37.7356 27.5147 35.4852C25.2643 33.2348 24 30.1825 24 26.9999C24 23.8173 25.2643 20.7651 27.5147 18.5146C29.7652 16.2642 32.8174 14.9999 36 14.9999C39.1826 14.9999 42.2348 16.2642 44.4853 18.5146C46.7357 20.7651 48 23.8173 48 26.9999C48 30.1825 46.7357 33.2348 44.4853 35.4852C42.2348 37.7356 39.1826 38.9999 36 38.9999Z" fill="#0076F5"/>
</g>
<defs>
<clipPath id="clip0_1094_2331">
<rect width="72" height="72" fill="white"/>
</clipPath>
</defs>
</svg>
