<svg width="72" height="72" viewBox="0 0 72 72" fill="none" xmlns="http://www.w3.org/2000/svg">
<g clip-path="url(#clip0_1094_2340)">
<path d="M36 33C39.9782 33 43.7936 34.5804 46.6066 37.3934C49.4196 40.2064 51 44.0218 51 48V66H21V48C21 44.0218 22.5804 40.2064 25.3934 37.3934C28.2064 34.5804 32.0218 33 36 33ZM15.864 42.018C15.3866 43.6284 15.1045 45.2903 15.024 46.968L15 48V66H6V52.5C5.99941 49.9127 6.95408 47.4163 8.6809 45.4896C10.4077 43.5629 12.7851 42.3416 15.357 42.06L15.867 42.018H15.864ZM56.136 42.018C58.8057 42.1807 61.3128 43.3559 63.1458 45.3037C64.9788 47.2515 65.9996 49.8253 66 52.5V66H57V48C57 45.921 56.7 43.914 56.136 42.018ZM16.5 24C18.4891 24 20.3968 24.7902 21.8033 26.1967C23.2098 27.6032 24 29.5109 24 31.5C24 33.4891 23.2098 35.3968 21.8033 36.8033C20.3968 38.2098 18.4891 39 16.5 39C14.5109 39 12.6032 38.2098 11.1967 36.8033C9.79018 35.3968 9 33.4891 9 31.5C9 29.5109 9.79018 27.6032 11.1967 26.1967C12.6032 24.7902 14.5109 24 16.5 24ZM55.5 24C57.4891 24 59.3968 24.7902 60.8033 26.1967C62.2098 27.6032 63 29.5109 63 31.5C63 33.4891 62.2098 35.3968 60.8033 36.8033C59.3968 38.2098 57.4891 39 55.5 39C53.5109 39 51.6032 38.2098 50.1967 36.8033C48.7902 35.3968 48 33.4891 48 31.5C48 29.5109 48.7902 27.6032 50.1967 26.1967C51.6032 24.7902 53.5109 24 55.5 24ZM36 6C39.1826 6 42.2348 7.26428 44.4853 9.51472C46.7357 11.7652 48 14.8174 48 18C48 21.1826 46.7357 24.2348 44.4853 26.4853C42.2348 28.7357 39.1826 30 36 30C32.8174 30 29.7652 28.7357 27.5147 26.4853C25.2643 24.2348 24 21.1826 24 18C24 14.8174 25.2643 11.7652 27.5147 9.51472C29.7652 7.26428 32.8174 6 36 6Z" fill="#0076F5"/>
</g>
<defs>
<clipPath id="clip0_1094_2340">
<rect width="72" height="72" fill="white"/>
</clipPath>
</defs>
</svg>
